{
    "asset": {
        "generator": "FBX2glTF v0.9.6",
        "version": "2.0"
    },
    "scene": 0,
    "buffers": [
        {
            "byteLength": 595600,
            "uri": "buffer.bin"
        }
    ],
    "bufferViews": [
        {
            "buffer": 0,
            "byteLength": 40,
            "byteOffset": 0
        },
        {
            "buffer": 0,
            "byteLength": 120,
            "byteOffset": 40
        },
        {
            "buffer": 0,
            "byteLength": 160,
            "byteOffset": 160
        },
        {
            "buffer": 0,
            "byteLength": 120,
            "byteOffset": 320
        },
        {
            "buffer": 0,
            "byteLength": 112248,
            "byteOffset": 440,
            "target": 34963
        },
        {
            "buffer": 0,
            "byteLength": 171024,
            "byteOffset": 112688,
            "target": 34962
        },
        {
            "buffer": 0,
            "byteLength": 171024,
            "byteOffset": 283712,
            "target": 34962
        },
        {
            "buffer": 0,
            "byteLength": 114016,
            "byteOffset": 454736,
            "target": 34962
        },
        {
            "buffer": 0,
            "byteLength": 2508,
            "byteOffset": 568752,
            "target": 34963
        },
        {
            "buffer": 0,
            "byteLength": 6660,
            "byteOffset": 571260,
            "target": 34962
        },
        {
            "buffer": 0,
            "byteLength": 6660,
            "byteOffset": 577920,
            "target": 34962
        },
        {
            "buffer": 0,
            "byteLength": 4440,
            "byteOffset": 584580,
            "target": 34962
        },
        {
            "buffer": 0,
            "byteLength": 1332,
            "byteOffset": 589020,
            "target": 34963
        },
        {
            "buffer": 0,
            "byteLength": 1968,
            "byteOffset": 590352,
            "target": 34962
        },
        {
            "buffer": 0,
            "byteLength": 1968,
            "byteOffset": 592320,
            "target": 34962
        },
        {
            "buffer": 0,
            "byteLength": 1312,
            "byteOffset": 594288,
            "target": 34962
        }
    ],
    "scenes": [
        {
            "name": "Root Scene",
            "nodes": [
                0
            ]
        }
    ],
    "accessors": [
        {
            "componentType": 5126,
            "type": "SCALAR",
            "count": 10,
            "bufferView": 0,
            "byteOffset": 0,
            "min": [
                0.0
            ],
            "max": [
                0.375
            ]
        },
        {
            "componentType": 5126,
            "type": "VEC3",
            "count": 10,
            "bufferView": 1,
            "byteOffset": 0
        },
        {
            "componentType": 5126,
            "type": "VEC4",
            "count": 10,
            "bufferView": 2,
            "byteOffset": 0
        },
        {
            "componentType": 5126,
            "type": "VEC3",
            "count": 10,
            "bufferView": 3,
            "byteOffset": 0
        },
        {
            "componentType": 5123,
            "type": "SCALAR",
            "count": 56124,
            "bufferView": 4,
            "byteOffset": 0
        },
        {
            "componentType": 5126,
            "type": "VEC3",
            "count": 14252,
            "bufferView": 5,
            "byteOffset": 0,
            "min": [
                -0.0113354222849011,
                -0.0143572613596916,
                -0.0433514602482319
            ],
            "max": [
                0.0113354176282883,
                0.0130865192040801,
                0.0212095677852631
            ]
        },
        {
            "componentType": 5126,
            "type": "VEC3",
            "count": 14252,
            "bufferView": 6,
            "byteOffset": 0
        },
        {
            "componentType": 5126,
            "type": "VEC2",
            "count": 14252,
            "bufferView": 7,
            "byteOffset": 0
        },
        {
            "componentType": 5123,
            "type": "SCALAR",
            "count": 1254,
            "bufferView": 8,
            "byteOffset": 0
        },
        {
            "componentType": 5126,
            "type": "VEC3",
            "count": 555,
            "bufferView": 9,
            "byteOffset": 0,
            "min": [
                -0.0123750967904925,
                -0.0143572613596916,
                -0.0423156209290028
            ],
            "max": [
                0.0123750921338797,
                0.01237509585917,
                -0.00999986194074154
            ]
        },
        {
            "componentType": 5126,
            "type": "VEC3",
            "count": 555,
            "bufferView": 10,
            "byteOffset": 0
        },
        {
            "componentType": 5126,
            "type": "VEC2",
            "count": 555,
            "bufferView": 11,
            "byteOffset": 0
        },
        {
            "componentType": 5123,
            "type": "SCALAR",
            "count": 666,
            "bufferView": 12,
            "byteOffset": 0
        },
        {
            "componentType": 5126,
            "type": "VEC3",
            "count": 164,
            "bufferView": 13,
            "byteOffset": 0,
            "min": [
                -0.00204482302069664,
                0.0100708287209272,
                0.0131771303713322
            ],
            "max": [
                0.00204482302069664,
                0.0134304482489824,
                0.0149746388196945
            ]
        },
        {
            "componentType": 5126,
            "type": "VEC3",
            "count": 164,
            "bufferView": 14,
            "byteOffset": 0
        },
        {
            "componentType": 5126,
            "type": "VEC2",
            "count": 164,
            "bufferView": 15,
            "byteOffset": 0
        }
    ],
    "samplers": [
        {}
    ],
    "materials": [
        {
            "name": "Material.010",
            "alphaMode": "OPAQUE",
            "extras": {
                "fromFBX": {
                    "shadingModel": "Phong",
                    "isTruePBR": false
                }
            },
            "pbrMetallicRoughness": {
                "baseColorFactor": [
                    0.66584849357605,
                    0.66584849357605,
                    0.66584849357605,
                    1.0
                ],
                "metallicFactor": 0.400000005960464,
                "roughnessFactor": 0.140028014779091
            }
        },
        {
            "name": "Material.008",
            "alphaMode": "OPAQUE",
            "extras": {
                "fromFBX": {
                    "shadingModel": "Phong",
                    "isTruePBR": false
                }
            },
            "pbrMetallicRoughness": {
                "baseColorFactor": [
                    0.0,
                    0.0,
                    0.0,
                    1.0
                ],
                "metallicFactor": 0.400000005960464,
                "roughnessFactor": 0.140028014779091
            }
        },
        {
            "name": "Material.006",
            "alphaMode": "OPAQUE",
            "extras": {
                "fromFBX": {
                    "shadingModel": "Phong",
                    "isTruePBR": false
                }
            },
            "pbrMetallicRoughness": {
                "baseColorFactor": [
                    0.3290154337883,
                    0.198316588997841,
                    0.0,
                    1.0
                ],
                "metallicFactor": 0.400000005960464,
                "roughnessFactor": 0.151991918683052
            }
        }
    ],
    "meshes": [
        {
            "name": "Cylinder",
            "primitives": [
                {
                    "material": 0,
                    "mode": 4,
                    "attributes": {
                        "NORMAL": 6,
                        "POSITION": 5,
                        "TEXCOORD_0": 7
                    },
                    "indices": 4
                },
                {
                    "material": 1,
                    "mode": 4,
                    "attributes": {
                        "NORMAL": 10,
                        "POSITION": 9,
                        "TEXCOORD_0": 11
                    },
                    "indices": 8
                },
                {
                    "material": 2,
                    "mode": 4,
                    "attributes": {
                        "NORMAL": 14,
                        "POSITION": 13,
                        "TEXCOORD_0": 15
                    },
                    "indices": 12
                }
            ]
        }
    ],
    "animations": [
        {
            "name": "Cylinder|Cube.002Action.001",
            "channels": [
                {
                    "sampler": 0,
                    "target": {
                        "node": 1,
                        "path": "translation"
                    }
                },
                {
                    "sampler": 1,
                    "target": {
                        "node": 1,
                        "path": "rotation"
                    }
                },
                {
                    "sampler": 2,
                    "target": {
                        "node": 1,
                        "path": "scale"
                    }
                }
            ],
            "samplers": [
                {
                    "input": 0,
                    "interpolation": "LINEAR",
                    "output": 1
                },
                {
                    "input": 0,
                    "interpolation": "LINEAR",
                    "output": 2
                },
                {
                    "input": 0,
                    "interpolation": "LINEAR",
                    "output": 3
                }
            ]
        }
    ],
    "nodes": [
        {
            "name": "RootNode",
            "translation": [
                0.0,
                0.0,
                0.0
            ],
            "rotation": [
                0.0,
                0.0,
                0.0,
                1.0
            ],
            "scale": [
                1.0,
                1.0,
                1.0
            ],
            "children": [
                1
            ]
        },
        {
            "name": "Cylinder",
            "translation": [
                0.0,
                0.325045704841614,
                2.35100245475769
            ],
            "rotation": [
                0.707106828689575,
                -0.707106709480286,
                5.33850723627438e-08,
                -5.33850830208848e-08
            ],
            "scale": [
                18.0940113067627,
                18.0940113067627,
                41.1670227050781
            ],
            "mesh": 0
        }
    ]
}